<svg width="1187" height="275" viewBox="0 0 1187 275" fill="none" xmlns="http://www.w3.org/2000/svg">
<ellipse cx="130.5" cy="137.284" rx="130.5" ry="137.284" fill="#2932CA"/>
<circle cx="130.5" cy="136.885" r="100.17" fill="white"/>
<ellipse cx="130.101" cy="137.284" rx="60.6605" ry="63.055" fill="#C14F1E"/>
<path d="M455.284 132.273C455.284 148.466 452.135 162.126 445.838 173.253C439.541 184.332 431.042 192.737 420.341 198.466C409.64 204.148 397.708 206.989 384.545 206.989C371.288 206.989 359.309 204.124 348.608 198.395C337.955 192.618 329.479 184.19 323.182 173.111C316.932 161.984 313.807 148.371 313.807 132.273C313.807 116.08 316.932 102.443 323.182 91.3636C329.479 80.2367 337.955 71.8324 348.608 66.1506C359.309 60.4214 371.288 57.5568 384.545 57.5568C397.708 57.5568 409.64 60.4214 420.341 66.1506C431.042 71.8324 439.541 80.2367 445.838 91.3636C452.135 102.443 455.284 116.08 455.284 132.273ZM414.659 132.273C414.659 123.561 413.499 116.222 411.179 110.256C408.906 104.242 405.521 99.697 401.023 96.6193C396.572 93.4943 391.08 91.9318 384.545 91.9318C378.011 91.9318 372.495 93.4943 367.997 96.6193C363.546 99.697 360.161 104.242 357.841 110.256C355.568 116.222 354.432 123.561 354.432 132.273C354.432 140.985 355.568 148.348 357.841 154.361C360.161 160.327 363.546 164.872 367.997 167.997C372.495 171.075 378.011 172.614 384.545 172.614C391.08 172.614 396.572 171.075 401.023 167.997C405.521 164.872 408.906 160.327 411.179 154.361C413.499 148.348 414.659 140.985 414.659 132.273Z" fill="#2932CA"/>
<path d="M455.284 132.273C455.284 148.466 452.135 162.126 445.838 173.253C439.541 184.332 431.042 192.737 420.341 198.466C409.64 204.148 397.708 206.989 384.545 206.989C371.288 206.989 359.309 204.124 348.608 198.395C337.955 192.618 329.479 184.19 323.182 173.111C316.932 161.984 313.807 148.371 313.807 132.273C313.807 116.08 316.932 102.443 323.182 91.3636C329.479 80.2367 337.955 71.8324 348.608 66.1506C359.309 60.4214 371.288 57.5568 384.545 57.5568C397.708 57.5568 409.64 60.4214 420.341 66.1506C431.042 71.8324 439.541 80.2367 445.838 91.3636C452.135 102.443 455.284 116.08 455.284 132.273ZM414.659 132.273C414.659 123.561 413.499 116.222 411.179 110.256C408.906 104.242 405.521 99.697 401.023 96.6193C396.572 93.4943 391.08 91.9318 384.545 91.9318C378.011 91.9318 372.495 93.4943 367.997 96.6193C363.546 99.697 360.161 104.242 357.841 110.256C355.568 116.222 354.432 123.561 354.432 132.273C354.432 140.985 355.568 148.348 357.841 154.361C360.161 160.327 363.546 164.872 367.997 167.997C372.495 171.075 378.011 172.614 384.545 172.614C391.08 172.614 396.572 171.075 401.023 167.997C405.521 164.872 408.906 160.327 411.179 154.361C413.499 148.348 414.659 140.985 414.659 132.273Z" fill="black" fill-opacity="0.2"/>
<path d="M503.555 205V59.5455H566.339C577.134 59.5455 586.58 61.5104 594.677 65.4403C602.773 69.3703 609.071 75.0284 613.569 82.4148C618.067 89.8011 620.316 98.6553 620.316 108.977C620.316 119.394 617.996 128.177 613.356 135.327C608.763 142.476 602.3 147.874 593.967 151.52C585.681 155.166 575.998 156.989 564.918 156.989H527.418V126.307H556.964C561.604 126.307 565.558 125.739 568.825 124.602C572.139 123.419 574.672 121.548 576.424 118.991C578.223 116.435 579.123 113.097 579.123 108.977C579.123 104.811 578.223 101.425 576.424 98.821C574.672 96.1695 572.139 94.2282 568.825 92.9972C565.558 91.7187 561.604 91.0795 556.964 91.0795H543.043V205H503.555ZM588.782 138.239L625.146 205H582.248L546.737 138.239H588.782Z" fill="black"/>
<path d="M503.555 205V59.5455H566.339C577.134 59.5455 586.58 61.5104 594.677 65.4403C602.773 69.3703 609.071 75.0284 613.569 82.4148C618.067 89.8011 620.316 98.6553 620.316 108.977C620.316 119.394 617.996 128.177 613.356 135.327C608.763 142.476 602.3 147.874 593.967 151.52C585.681 155.166 575.998 156.989 564.918 156.989H527.418V126.307H556.964C561.604 126.307 565.558 125.739 568.825 124.602C572.139 123.419 574.672 121.548 576.424 118.991C578.223 116.435 579.123 113.097 579.123 108.977C579.123 104.811 578.223 101.425 576.424 98.821C574.672 96.1695 572.139 94.2282 568.825 92.9972C565.558 91.7187 561.604 91.0795 556.964 91.0795H543.043V205H503.555ZM588.782 138.239L625.146 205H582.248L546.737 138.239H588.782Z" fill="#C14F1E"/>
<path d="M667.148 59.5455H716.296L750.103 141.932H751.808L785.614 59.5455H834.762V205H796.126V120.909H794.989L762.603 203.864H739.308L706.921 120.341H705.785V205H667.148V59.5455Z" fill="#2932CA"/>
<path d="M667.148 59.5455H716.296L750.103 141.932H751.808L785.614 59.5455H834.762V205H796.126V120.909H794.989L762.603 203.864H739.308L706.921 120.341H705.785V205H667.148V59.5455Z" fill="#2932CA"/>
</svg>
